<?xml version="1.0" standalone="no"?>
<!DOCTYPE svg PUBLIC "-//W3C//DTD SVG 20010904//EN"
 "http://www.w3.org/TR/2001/REC-SVG-20010904/DTD/svg10.dtd">
<svg version="1.0" xmlns="http://www.w3.org/2000/svg"
 width="90.000000pt" height="100.000000pt" viewBox="20 0 50.000000 100.000000"
 preserveAspectRatio="xMidYMid meet">
<metadata>
Created by potrace 1.10, written by Peter Selinger 2001-2011
</metadata>
<g transform="translate(0.000000,86.000000) scale(0.100000,-0.100000)"
fill="#000000" stroke="none">
<path d="M862 663 l-21 -48 32 -5 c28 -4 32 -2 35 19 2 13 -2 28 -10 32 -8 6
-9 9 -1 9 6 0 9 9 6 20 -8 31 -19 24 -41 -27z"/>
<path d="M840 597 c0 -3 -5 -40 -11 -82 -9 -70 -13 -79 -50 -112 -47 -43 -52
-69 -12 -58 34 8 29 3 42 45 8 30 9 24 6 -37 -3 -40 -1 -83 4 -95 8 -22 9 -21
25 11 10 18 15 39 12 46 -3 8 -1 15 4 17 6 2 52 250 47 254 -6 5 -67 15 -67
11z"/>
<path d="M17 494 c-4 -4 -7 -56 -7 -114 0 -112 9 -137 44 -124 11 4 16 19 16
50 l0 44 75 0 c58 0 77 3 81 15 12 31 -15 45 -87 45 -55 0 -69 3 -69 15 0 12
16 15 83 15 90 0 111 8 105 36 -3 17 -15 19 -119 22 -63 1 -118 -1 -122 -4z
m55 -100 c17 -16 17 -18 0 -30 -26 -20 -32 -17 -32 16 0 34 6 37 32 14z"/>
<path d="M272 395 c-56 -114 -60 -130 -36 -139 25 -9 34 1 72 83 l35 75 38
-76 c43 -86 54 -97 77 -75 14 14 10 26 -39 124 -72 145 -78 145 -147 8z"/>
<path d="M497 493 c-4 -3 -7 -57 -7 -119 0 -94 3 -113 16 -118 26 -10 44 13
44 55 0 53 20 51 91 -11 57 -49 81 -56 93 -24 3 8 -7 26 -24 41 -33 29 -38 43
-15 43 15 0 45 48 45 73 0 8 -9 26 -21 41 -20 25 -25 26 -118 26 -54 0 -101
-3 -104 -7z m183 -68 c0 -12 -14 -15 -70 -15 -58 0 -68 3 -64 15 9 22 134 22
134 0z m-136 -34 c17 -19 17 -20 -3 -31 -19 -10 -21 -8 -21 20 0 35 1 36 24
11z m126 -23 c-1 -33 -16 -38 -40 -13 l-23 25 31 0 c19 0 32 -5 32 -12z"/>
<path d="M890 405 c0 -11 -3 -29 -6 -41 -4 -15 1 -23 21 -32 14 -7 28 -12 30
-12 12 0 3 28 -20 65 -18 30 -24 35 -25 20z"/>
<path d="M5 232 c14 -15 182 -48 315 -63 129 -15 548 -15 595 -1 19 5 -60 7
-210 4 -281 -5 -533 18 -690 64 -14 4 -17 3 -10 -4z"/>
</g>
</svg>
